<svg width="149" height="52" viewBox="0 0 149 52" fill="none" xmlns="http://www.w3.org/2000/svg">
<path d="M27.2558 21.5246H52.6412L51.6429 27.4208C50.4544 34.714 47.2931 40.6576 42.159 45.2514C37.0724 49.7505 30.7261 52 23.12 52C15.3713 52 9.31016 49.4663 4.93665 44.3989C0.65822 39.2842 -0.839231 32.9144 0.444299 25.2896C1.63275 17.9016 5.00796 11.8397 10.5699 7.10382C16.0368 2.36794 22.502 0 29.9655 0C34.7193 0 38.8551 1.01822 42.3729 3.05464C45.9383 5.04371 48.7668 7.86157 50.8585 11.5082L37.8093 18.541C35.8602 15.4627 32.7702 13.9235 28.5393 13.9235C25.1166 13.9235 22.0979 15.0601 19.4833 17.3333C16.9163 19.4645 15.3 22.3534 14.6344 26C14.0164 29.4098 14.6107 32.4171 16.4171 35.0219C18.2236 37.5319 20.8382 38.7869 24.2609 38.7869C29.3475 38.7869 32.9841 37.0583 35.1709 33.6011H25.1166L27.2558 21.5246Z" fill="black"/>
<path d="M52.8863 50.8634L61.6571 1.13661H75.9185L67.1477 50.8634H52.8863Z" fill="black"/>
<path d="M83.0353 1.13661H103.714C110.275 1.13661 115.504 3.64663 119.402 8.66667C123.3 13.6867 124.655 19.7013 123.466 26.7104C122.183 33.9089 118.974 39.7341 113.84 44.1858C108.753 48.6375 102.455 50.8634 94.9436 50.8634H74.2645L83.0353 1.13661ZM109.348 26C109.918 22.7322 109.443 20.0801 107.921 18.0437C106.4 15.9599 104.19 14.918 101.29 14.918H95.5854L91.6635 37.082H97.368C100.268 37.082 102.835 36.0638 105.069 34.0273C107.303 31.9435 108.73 29.2678 109.348 26Z" fill="black"/>
<path d="M141.014 32.3934H129.604L130.104 15.3443L132.599 1.13661H149L146.504 15.3443L141.014 32.3934ZM131.886 51.929C129.604 51.929 127.822 51.1239 126.538 49.5137C125.255 47.8561 124.803 45.8907 125.183 43.6175C125.516 41.3443 126.61 39.4499 128.464 37.9344C130.318 36.3716 132.409 35.5902 134.739 35.5902C137.02 35.5902 138.803 36.4189 140.087 38.0765C141.37 39.6867 141.822 41.6284 141.441 43.9016C141.061 46.2222 139.968 48.1403 138.161 49.6557C136.402 51.1712 134.311 51.929 131.886 51.929Z" fill="black"/>
</svg>
