<svg width="24" height="24" viewBox="0 0 24 24" fill="none" xmlns="http://www.w3.org/2000/svg">
<path fill-rule="evenodd" clip-rule="evenodd" d="M6.63605 6.63604C4.29291 8.97918 4.29291 12.7782 6.63605 15.1213C8.9792 17.4645 12.7782 17.4645 15.1213 15.1213C17.4645 12.7782 17.4645 8.97918 15.1213 6.63604C12.7782 4.29289 8.9792 4.29289 6.63605 6.63604ZM5.22184 16.5355C2.09764 13.4113 2.09764 8.34602 5.22184 5.22182C8.34603 2.09763 13.4114 2.09763 16.5355 5.22182C19.6597 8.34602 19.6597 13.4113 16.5355 16.5355C13.4114 19.6597 8.34603 19.6597 5.22184 16.5355Z" fill="current"/>
<path fill-rule="evenodd" clip-rule="evenodd" d="M15.1213 15.1213C15.5119 14.7308 16.145 14.7308 16.5355 15.1213L21.2071 19.7929C21.5976 20.1834 21.5976 20.8166 21.2071 21.2071C20.8166 21.5976 20.1834 21.5976 19.7929 21.2071L15.1213 16.5355C14.7308 16.145 14.7308 15.5118 15.1213 15.1213Z" fill="current"/>
</svg>
