<svg width="24" height="24" viewBox="0 0 24 24" fill="none" xmlns="http://www.w3.org/2000/svg">
<path d="M5.3756 21.626C5.33524 21.6426 5.29639 21.6626 5.25951 21.6859C5.20344 21.7213 5.13585 21.74 5.06 21.74C4.83076 21.74 4.63 21.5531 4.63 21.31V4.5C4.63 3.25421 5.63422 2.25 6.88 2.25H17.12C18.3667 2.25 19.3675 3.25409 19.36 4.49548H19.36V4.5V21.32C19.36 21.5671 19.1651 21.75 18.93 21.75C18.8542 21.75 18.7866 21.7313 18.7305 21.6959C18.6936 21.6725 18.6546 21.6525 18.6142 21.6359L12.2642 19.0359C12.082 18.9613 11.8778 18.9614 11.6956 19.036L5.3756 21.626Z" fill="current" stroke="current" stroke-width="1.5" stroke-linejoin="round"/>
</svg>
